<svg width="100%" viewBox="0 0 680 520" xmlns="http://www.w3.org/2000/svg">
<style>
  .bg { fill: #1a2a1a; }
  .leaf1 { fill: #2d5a27; }
  .leaf2 { fill: #3d7a35; }
  .leaf3 { fill: #4a9040; }
  .trunk { fill: #5c3d1e; }
  .branch { fill: #6b4a2a; stroke: none; }
  .body { fill: #8B6914; }
  .face { fill: #c49a3c; }
  .ear { fill: #8B6914; }
  .eye { fill: #1a0a00; }
  .nose { fill: #5c3010; }
  .cheek { fill: #c49a3c; }
  .fruit { fill: #8B3A00; }
  .fruit2 { fill: #a04500; }
  .bubble { fill: #f5f0dc; stroke: #c8b87a; stroke-width: 1.5; }
  .btext { fill: #3a2a00; font-family: serif; font-size: 13px; font-style: italic; }
  .stars { fill: #ffe066; }
  .ground { fill: #2d1a08; }
  .grass { fill: #2d5a27; }
  .tail { fill: none; stroke: #8B6914; stroke-width: 6; stroke-linecap: round; }
  .vine { fill: none; stroke: #3d7a35; stroke-width: 3; stroke-linecap: round; }
</style>

<rect class="bg" x="0" y="0" width="680" height="520"/>

<circle class="stars" cx="80" cy="40" r="2"/>
<circle class="stars" cx="150" cy="25" r="1.5"/>
<circle class="stars" cx="220" cy="50" r="2"/>
<circle class="stars" cx="310" cy="20" r="1.5"/>
<circle class="stars" cx="400" cy="35" r="2"/>
<circle class="stars" cx="480" cy="18" r="1.5"/>
<circle class="stars" cx="560" cy="42" r="2"/>
<circle class="stars" cx="630" cy="28" r="1.5"/>
<circle class="stars" cx="40" cy="80" r="1.5"/>
<circle class="stars" cx="600" cy="70" r="1.5"/>

<circle cx="590" cy="60" r="32" fill="#f5e68a"/>
<circle cx="604" cy="52" r="28" fill="#1a2a1a"/>

<rect class="trunk" x="60" y="280" width="18" height="160"/>
<ellipse class="leaf1" cx="69" cy="250" rx="45" ry="60"/>
<ellipse class="leaf2" cx="55" cy="265" rx="30" ry="40"/>
<ellipse class="leaf3" cx="85" cy="258" rx="32" ry="38"/>

<rect class="trunk" x="590" y="290" width="18" height="160"/>
<ellipse class="leaf1" cx="599" cy="260" rx="45" ry="60"/>
<ellipse class="leaf2" cx="585" cy="275" rx="30" ry="40"/>
<ellipse class="leaf3" cx="615" cy="268" rx="32" ry="38"/>

<rect class="trunk" x="300" y="200" width="28" height="320"/>

<rect class="branch" x="190" y="195" width="190" height="16" rx="8"/>
<rect class="branch" x="310" y="230" width="150" height="14" rx="7"/>
<rect class="branch" x="220" y="260" width="100" height="12" rx="6"/>

<path class="vine" d="M190 200 Q160 230 170 270"/>
<path class="vine" d="M380 200 Q410 240 400 280"/>
<path class="vine" d="M460 240 Q480 270 470 300"/>

<ellipse class="leaf2" cx="200" cy="185" rx="28" ry="18"/>
<ellipse class="leaf3" cx="240" cy="178" rx="22" ry="15"/>
<ellipse class="leaf1" cx="280" cy="182" rx="25" ry="16"/>
<ellipse class="leaf2" cx="350" cy="175" rx="26" ry="17"/>
<ellipse class="leaf3" cx="390" cy="180" rx="20" ry="14"/>
<ellipse class="leaf1" cx="440" cy="188" rx="22" ry="15"/>
<ellipse class="leaf2" cx="470" cy="183" rx="18" ry="13"/>

<circle class="fruit" cx="260" cy="215" r="9"/>
<circle class="fruit2" cx="252" cy="212" r="5"/>
<circle class="fruit" cx="420" cy="222" r="8"/>
<circle class="fruit2" cx="413" cy="219" r="4.5"/>
<circle class="fruit" cx="170" cy="260" r="7"/>
<circle class="fruit" cx="490" cy="252" r="8"/>

<path class="tail" d="M370 310 Q420 330 430 360 Q435 385 410 390"/>

<ellipse class="body" cx="330" cy="305" rx="42" ry="50"/>

<path fill="#8B6914" d="M290 285 Q260 270 248 260 Q240 255 245 248 Q252 242 262 250 Q272 258 295 278 Z"/>
<path fill="#8B6914" d="M365 295 Q390 310 400 330 Q405 338 398 342 Q390 346 385 336 Q378 322 360 308 Z"/>
<circle class="fruit" cx="399" cy="345" r="10"/>
<circle class="fruit2" cx="393" cy="341" r="6"/>

<path fill="#8B6914" d="M295 340 Q278 360 272 375 Q268 385 276 388 Q284 391 288 380 Q294 365 308 348 Z"/>
<path fill="#8B6914" d="M352 345 Q355 368 352 382 Q350 392 342 392 Q334 390 336 380 Q340 364 342 348 Z"/>

<ellipse class="body" cx="330" cy="255" rx="36" ry="34"/>

<ellipse class="ear" cx="295" cy="258" rx="12" ry="10"/>
<ellipse class="face" cx="296" cy="258" rx="7" ry="6"/>
<ellipse class="ear" cx="365" cy="258" rx="12" ry="10"/>
<ellipse class="face" cx="364" cy="258" rx="7" ry="6"/>

<ellipse class="face" cx="330" cy="265" rx="24" ry="22"/>

<ellipse class="eye" cx="318" cy="255" rx="5" ry="4"/>
<ellipse class="eye" cx="342" cy="255" rx="5" ry="4"/>
<circle fill="white" cx="321" cy="253" r="1.8"/>
<circle fill="white" cx="345" cy="253" r="1.8"/>
<path fill="#8B6914" d="M313 252 Q318 249 323 252" stroke="none"/>
<path fill="#8B6914" d="M337 252 Q342 249 347 252" stroke="none"/>

<ellipse class="nose" cx="330" cy="264" rx="8" ry="5"/>
<circle fill="#3a1a08" cx="327" cy="264" r="2.5"/>
<circle fill="#3a1a08" cx="333" cy="264" r="2.5"/>

<path fill="none" stroke="#5c3010" stroke-width="2" stroke-linecap="round" d="M318 274 Q330 283 342 274"/>
<path fill="#c47a6a" d="M321 275 Q330 282 339 275 Q330 280 321 275Z"/>

<ellipse fill="#c06040" opacity="0.35" cx="312" cy="270" rx="8" ry="5"/>
<ellipse fill="#c06040" opacity="0.35" cx="348" cy="270" rx="8" ry="5"/>

<g opacity="0.9">
  <polygon class="stars" points="290,228 292,234 298,234 293,238 295,244 290,240 285,244 287,238 282,234 288,234" transform="scale(0.7) translate(125,98)"/>
  <polygon class="stars" points="370,220 372,226 378,226 373,230 375,236 370,232 365,236 367,230 362,226 368,226" transform="scale(0.6) translate(255,118)"/>
  <polygon class="stars" points="355,235 357,241 363,241 358,245 360,251 355,247 350,251 352,245 347,241 353,241" transform="scale(0.65) translate(208,102)"/>
</g>

<rect class="bubble" x="390" y="190" width="220" height="72" rx="12"/>
<polygon class="bubble" points="410,262 390,278 430,262"/>
<text class="btext" x="410" y="214">patrolling is dangerous...</text>
<text class="btext" x="410" y="232">but after those figs</text>
<text class="btext" x="410" y="250">we feel invincible</text>

<rect class="ground" x="0" y="450" width="680" height="70"/>
<ellipse class="grass" cx="100" cy="450" rx="80" ry="12"/>
<ellipse class="grass" cx="300" cy="452" rx="100" ry="11"/>
<ellipse class="grass" cx="550" cy="450" rx="90" ry="12"/>

<circle class="fruit" cx="200" cy="448" r="7"/>
<circle class="fruit" cx="460" cy="446" r="8"/>
<circle class="fruit2" cx="470" cy="444" r="4"/>
</svg>
